<svg version="1.1" xmlns="http://www.w3.org/2000/svg" xmlns:xlink="http://www.w3.org/1999/xlink" width="612" height="676"><defs/><g><g transform="translate(-86,10) scale(1,1)"><path fill="#C0C0C0" stroke="none" d="M 103 17 L 684 17 L 684 662 L 103 662" opacity="0.2"/></g><g transform="translate(-86,10) scale(1,1)"><path fill="#C0C0C0" stroke="none" d="M 103 17 L 113 7 L 694 7 L 684 17" opacity="0.2"/></g><g transform="translate(-86,10) scale(1,1)"><path fill="#C0C0C0" stroke="none" d="M 694 7 L 684 17 L 684 662 L 694 652" opacity="0.2"/></g><g transform="translate(-86,10) scale(1,1)"><path fill="#ffffff" stroke="none" d="M 96 10 L 677 10 L 677 655 L 96 655"/></g><g transform="translate(-86,10) scale(1,1)"><path fill="#ffffff" stroke="none" d="M 96 10 L 106 0 L 687 0 L 677 10"/></g><g transform="translate(-86,10) scale(1,1)"><path fill="#ffffff" stroke="none" d="M 687 0 L 677 10 L 677 655 L 687 645"/></g><g transform="translate(-86,10) scale(1,1)"><path fill="none" stroke="#000000" d="M 96 10 L 677 10 L 677 655 L 96 655 L 96 10" stroke-miterlimit="10"/></g><g transform="translate(-86,10) scale(1,1)"><path fill="none" stroke="#000000" d="M 96 10 L 106 0 L 687 0 L 677 10 L 96 10" stroke-miterlimit="10"/></g><g transform="translate(-86,10) scale(1,1)"><path fill="none" stroke="#000000" d="M 687 0 L 677 10 L 677 655 L 687 645 L 687 0" stroke-miterlimit="10"/></g><g transform="translate(-86,10) scale(1,1)"><g><path fill="none" stroke="none"/><text fill="#000000" stroke="none" font-family="Arial" font-size="13px" font-style="normal" font-weight="bold" text-decoration="none" x="371.825927734375" y="29.5">infojs</text></g></g><g transform="translate(-86,10) scale(1,1)"><path fill="#C0C0C0" stroke="none" d="M 423 289 L 660 289 L 660 638 L 423 638" opacity="0.2"/></g><g transform="translate(-86,10) scale(1,1)"><path fill="#C0C0C0" stroke="none" d="M 423 289 L 433 279 L 670 279 L 660 289" opacity="0.2"/></g><g transform="translate(-86,10) scale(1,1)"><path fill="#C0C0C0" stroke="none" d="M 670 279 L 660 289 L 660 638 L 670 628" opacity="0.2"/></g><g transform="translate(-86,10) scale(1,1)"><path fill="#ffffff" stroke="none" d="M 416 282 L 653 282 L 653 631 L 416 631"/></g><g transform="translate(-86,10) scale(1,1)"><path fill="#ffffff" stroke="none" d="M 416 282 L 426 272 L 663 272 L 653 282"/></g><g transform="translate(-86,10) scale(1,1)"><path fill="#ffffff" stroke="none" d="M 663 272 L 653 282 L 653 631 L 663 621"/></g><g transform="translate(-86,10) scale(1,1)"><path fill="none" stroke="#000000" d="M 416 282 L 653 282 L 653 631 L 416 631 L 416 282" stroke-miterlimit="10"/></g><g transform="translate(-86,10) scale(1,1)"><path fill="none" stroke="#000000" d="M 416 282 L 426 272 L 663 272 L 653 282 L 416 282" stroke-miterlimit="10"/></g><g transform="translate(-86,10) scale(1,1)"><path fill="none" stroke="#000000" d="M 663 272 L 653 282 L 653 631 L 663 621 L 663 272" stroke-miterlimit="10"/></g><g transform="translate(-86,10) scale(1,1)"><g><path fill="none" stroke="none"/><text fill="#000000" stroke="none" font-family="Arial" font-size="13px" font-style="normal" font-weight="bold" text-decoration="none" x="521.27001953125" y="301.5">docs</text></g></g><g transform="translate(-86,10) scale(1,1)"><path fill="#C0C0C0" stroke="none" d="M 119 265 L 356 265 L 356 422 L 119 422" opacity="0.2"/></g><g transform="translate(-86,10) scale(1,1)"><path fill="#C0C0C0" stroke="none" d="M 119 265 L 129 255 L 366 255 L 356 265" opacity="0.2"/></g><g transform="translate(-86,10) scale(1,1)"><path fill="#C0C0C0" stroke="none" d="M 366 255 L 356 265 L 356 422 L 366 412" opacity="0.2"/></g><g transform="translate(-86,10) scale(1,1)"><path fill="#ffffff" stroke="none" d="M 112 258 L 349 258 L 349 415 L 112 415"/></g><g transform="translate(-86,10) scale(1,1)"><path fill="#ffffff" stroke="none" d="M 112 258 L 122 248 L 359 248 L 349 258"/></g><g transform="translate(-86,10) scale(1,1)"><path fill="#ffffff" stroke="none" d="M 359 248 L 349 258 L 349 415 L 359 405"/></g><g transform="translate(-86,10) scale(1,1)"><path fill="none" stroke="#000000" d="M 112 258 L 349 258 L 349 415 L 112 415 L 112 258" stroke-miterlimit="10"/></g><g transform="translate(-86,10) scale(1,1)"><path fill="none" stroke="#000000" d="M 112 258 L 122 248 L 359 248 L 349 258 L 112 258" stroke-miterlimit="10"/></g><g transform="translate(-86,10) scale(1,1)"><path fill="none" stroke="#000000" d="M 359 248 L 349 258 L 349 415 L 359 405 L 359 248" stroke-miterlimit="10"/></g><g transform="translate(-86,10) scale(1,1)"><g><path fill="none" stroke="none"/><text fill="#000000" stroke="none" font-family="Arial" font-size="13px" font-style="normal" font-weight="bold" text-decoration="none" x="220.523193359375" y="277.5">test</text></g></g><g transform="translate(-86,10) scale(1,1)"><path fill="#C0C0C0" stroke="none" d="M 562.6 71 L 602.36 71 L 619.4 88.03999999999999 L 619.4 142 L 562.6 142" opacity="0.2"/></g><g transform="translate(-86,10) scale(1,1)"><path fill="#ffffff" stroke="none" d="M 555.6 64 L 595.36 64 L 612.4 81.03999999999999 L 612.4 135 L 555.6 135"/></g><g transform="translate(-86,10) scale(1,1)"><path fill="none" stroke="#000000" d="M 555.6 64 L 595.36 64 L 612.4 81.03999999999999 L 612.4 135 L 555.6 135 L 555.6 64" stroke-miterlimit="10"/></g><g transform="translate(-86,10) scale(1,1)"><path fill="none" stroke="#000000" d="M 595.36 64 L 595.36 81.03999999999999 L 612.4 81.03999999999999 L 595.36 64" stroke-miterlimit="10"/></g><g transform="translate(-86,10) scale(1,1)"><g><path fill="none" stroke="none"/><text fill="#000000" stroke="none" font-family="Arial" font-size="13px" font-style="normal" font-weight="bold" text-decoration="none" x="561.9609375" y="154.5">index.js</text></g></g><g transform="translate(-86,10) scale(1,1)"><path fill="#C0C0C0" stroke="none" d="M 138.6 71 L 178.35999999999999 71 L 195.39999999999998 88.03999999999999 L 195.39999999999998 142 L 138.6 142" opacity="0.2"/></g><g transform="translate(-86,10) scale(1,1)"><path fill="#ffffff" stroke="none" d="M 131.60000000000002 64 L 171.35999999999999 64 L 188.39999999999998 81.03999999999999 L 188.39999999999998 135 L 131.60000000000002 135"/></g><g transform="translate(-86,10) scale(1,1)"><path fill="none" stroke="#000000" d="M 131.60000000000002 64 L 171.35999999999999 64 L 188.39999999999998 81.03999999999999 L 188.39999999999998 135 L 131.60000000000002 135 L 131.60000000000002 64" stroke-miterlimit="10"/></g><g transform="translate(-86,10) scale(1,1)"><path fill="none" stroke="#000000" d="M 171.35999999999999 64 L 171.35999999999999 81.03999999999999 L 188.39999999999998 81.03999999999999 L 171.35999999999999 64" stroke-miterlimit="10"/></g><g transform="translate(-86,10) scale(1,1)"><g><path fill="none" stroke="none"/><text fill="#000000" stroke="none" font-family="Arial" font-size="13px" font-style="normal" font-weight="bold" text-decoration="none" x="121.695068359375" y="154.5">package.json</text></g></g><g transform="translate(-86,10) scale(1,1)"><path fill="#C0C0C0" stroke="none" d="M 358.6 71 L 398.36 71 L 415.40000000000003 88.04 L 415.40000000000003 142 L 358.6 142" opacity="0.2"/></g><g transform="translate(-86,10) scale(1,1)"><path fill="#ffffff" stroke="none" d="M 351.6 64 L 391.36 64 L 408.4 81.03999999999999 L 408.4 135 L 351.6 135"/></g><g transform="translate(-86,10) scale(1,1)"><path fill="none" stroke="#000000" d="M 351.6 64 L 391.36 64 L 408.4 81.03999999999999 L 408.4 135 L 351.6 135 L 351.6 64" stroke-miterlimit="10"/></g><g transform="translate(-86,10) scale(1,1)"><path fill="none" stroke="#000000" d="M 391.36 64 L 391.36 81.03999999999999 L 408.4 81.03999999999999 L 391.36 64" stroke-miterlimit="10"/></g><g transform="translate(-86,10) scale(1,1)"><g><path fill="none" stroke="none"/><text fill="#000000" stroke="none" font-family="Arial" font-size="13px" font-style="normal" font-weight="bold" text-decoration="none" x="350.75" y="154.5">.travis.yml</text></g></g><g transform="translate(-86,10) scale(1,1)"><path fill="#C0C0C0" stroke="none" d="M 254.6 71 L 294.35999999999996 71 L 311.4 88.03999999999999 L 311.4 142 L 254.6 142" opacity="0.2"/></g><g transform="translate(-86,10) scale(1,1)"><path fill="#ffffff" stroke="none" d="M 247.60000000000002 64 L 287.36 64 L 304.4 81.03999999999999 L 304.4 135 L 247.60000000000002 135"/></g><g transform="translate(-86,10) scale(1,1)"><path fill="none" stroke="#000000" d="M 247.60000000000002 64 L 287.36 64 L 304.4 81.03999999999999 L 304.4 135 L 247.60000000000002 135 L 247.60000000000002 64" stroke-miterlimit="10"/></g><g transform="translate(-86,10) scale(1,1)"><path fill="none" stroke="#000000" d="M 287.36 64 L 287.36 81.03999999999999 L 304.4 81.03999999999999 L 287.36 64" stroke-miterlimit="10"/></g><g transform="translate(-86,10) scale(1,1)"><g><path fill="none" stroke="none"/><text fill="#000000" stroke="none" font-family="Arial" font-size="13px" font-style="normal" font-weight="bold" text-decoration="none" x="237.35546875" y="154.5">README.md</text></g></g><g transform="translate(-86,10) scale(1,1)"><path fill="#C0C0C0" stroke="none" d="M 154.2681640625 327 L 181.70816406250003 327 L 193.46816406250002 338.76 L 193.46816406250002 376 L 154.2681640625 376" opacity="0.2"/></g><g transform="translate(-86,10) scale(1,1)"><path fill="#ffffff" stroke="none" d="M 147.26816406249998 320 L 174.7081640625 320 L 186.46816406250002 331.76 L 186.46816406250002 369 L 147.26816406249998 369"/></g><g transform="translate(-86,10) scale(1,1)"><path fill="none" stroke="#000000" d="M 147.26816406249998 320 L 174.7081640625 320 L 186.46816406250002 331.76 L 186.46816406250002 369 L 147.26816406249998 369 L 147.26816406249998 320" stroke-miterlimit="10"/></g><g transform="translate(-86,10) scale(1,1)"><path fill="none" stroke="#000000" d="M 174.7081640625 320 L 174.7081640625 331.76 L 186.46816406250002 331.76 L 174.7081640625 320" stroke-miterlimit="10"/></g><g transform="translate(-86,10) scale(1,1)"><g><path fill="none" stroke="none"/><text fill="#000000" stroke="none" font-family="Arial" font-size="13px" font-style="normal" font-weight="bold" text-decoration="none" x="149.891357421875" y="388.5">test.js</text></g></g><g transform="translate(-86,10) scale(1,1)"><path fill="#C0C0C0" stroke="none" d="M 453.8 327 L 489.08 327 L 504.2 342.12 L 504.2 390 L 453.8 390" opacity="0.2"/></g><g transform="translate(-86,10) scale(1,1)"><path fill="#ffffff" stroke="none" d="M 446.8 320 L 482.08 320 L 497.2 335.12 L 497.2 383 L 446.8 383"/></g><g transform="translate(-86,10) scale(1,1)"><path fill="none" stroke="#000000" d="M 446.8 320 L 482.08 320 L 497.2 335.12 L 497.2 383 L 446.8 383 L 446.8 320" stroke-miterlimit="10"/></g><g transform="translate(-86,10) scale(1,1)"><path fill="none" stroke="#000000" d="M 482.08 320 L 482.08 335.12 L 497.2 335.12 L 482.08 320" stroke-miterlimit="10"/></g><g transform="translate(-86,10) scale(1,1)"><g><path fill="none" stroke="none"/><text fill="#000000" stroke="none" font-family="Arial" font-size="13px" font-style="normal" font-weight="bold" text-decoration="none" x="442.740478515625" y="402.5">infojs.html</text></g></g><g transform="translate(-86,10) scale(1,1)"><path fill="#C0C0C0" stroke="none" d="M 457.8 431 L 493.08 431 L 508.2 446.12 L 508.2 494 L 457.8 494" opacity="0.2"/></g><g transform="translate(-86,10) scale(1,1)"><path fill="#ffffff" stroke="none" d="M 450.8 424 L 486.08 424 L 501.2 439.12 L 501.2 487 L 450.8 487"/></g><g transform="translate(-86,10) scale(1,1)"><path fill="none" stroke="#000000" d="M 450.8 424 L 486.08 424 L 501.2 439.12 L 501.2 487 L 450.8 487 L 450.8 424" stroke-miterlimit="10"/></g><g transform="translate(-86,10) scale(1,1)"><path fill="none" stroke="#000000" d="M 486.08 424 L 486.08 439.12 L 501.2 439.12 L 486.08 424" stroke-miterlimit="10"/></g><g transform="translate(-86,10) scale(1,1)"><g><path fill="none" stroke="none"/><text fill="#000000" stroke="none" font-family="Arial" font-size="13px" font-style="normal" font-weight="bold" text-decoration="none" x="446.37548828125" y="506.5">index.html</text></g></g><g transform="translate(-86,10) scale(1,1)"><path fill="#C0C0C0" stroke="none" d="M 454.6 527 L 494.36 527 L 511.40000000000003 544.04 L 511.40000000000003 598 L 454.6 598" opacity="0.2"/></g><g transform="translate(-86,10) scale(1,1)"><path fill="#ffffff" stroke="none" d="M 447.6 520 L 487.36 520 L 504.4 537.04 L 504.4 591 L 447.6 591"/></g><g transform="translate(-86,10) scale(1,1)"><path fill="none" stroke="#000000" d="M 447.6 520 L 487.36 520 L 504.4 537.04 L 504.4 591 L 447.6 591 L 447.6 520" stroke-miterlimit="10"/></g><g transform="translate(-86,10) scale(1,1)"><path fill="none" stroke="#000000" d="M 487.36 520 L 487.36 537.04 L 504.4 537.04 L 487.36 520" stroke-miterlimit="10"/></g><g transform="translate(-86,10) scale(1,1)"><g><path fill="none" stroke="none"/><text fill="#000000" stroke="none" font-family="Arial" font-size="13px" font-style="normal" font-weight="bold" text-decoration="none" x="439.87548828125" y="610.5">index.js.html</text></g></g><g transform="translate(-86,10) scale(1,1)"><path fill="#C0C0C0" stroke="none" d="M 575 353 L 622.72998046875 353 L 622.72998046875 386 L 575 386" opacity="0.2"/></g><g transform="translate(-86,10) scale(1,1)"><path fill="#C0C0C0" stroke="none" d="M 575 353 L 585 343 L 632.72998046875 343 L 622.72998046875 353" opacity="0.2"/></g><g transform="translate(-86,10) scale(1,1)"><path fill="#C0C0C0" stroke="none" d="M 632.72998046875 343 L 622.72998046875 353 L 622.72998046875 386 L 632.72998046875 376" opacity="0.2"/></g><g transform="translate(-86,10) scale(1,1)"><path fill="#ffffff" stroke="none" d="M 568 346 L 615.72998046875 346 L 615.72998046875 379 L 568 379"/></g><g transform="translate(-86,10) scale(1,1)"><path fill="#ffffff" stroke="none" d="M 568 346 L 578 336 L 625.72998046875 336 L 615.72998046875 346"/></g><g transform="translate(-86,10) scale(1,1)"><path fill="#ffffff" stroke="none" d="M 625.72998046875 336 L 615.72998046875 346 L 615.72998046875 379 L 625.72998046875 369"/></g><g transform="translate(-86,10) scale(1,1)"><path fill="none" stroke="#000000" d="M 568 346 L 615.72998046875 346 L 615.72998046875 379 L 568 379 L 568 346" stroke-miterlimit="10"/></g><g transform="translate(-86,10) scale(1,1)"><path fill="none" stroke="#000000" d="M 568 346 L 578 336 L 625.72998046875 336 L 615.72998046875 346 L 568 346" stroke-miterlimit="10"/></g><g transform="translate(-86,10) scale(1,1)"><path fill="none" stroke="#000000" d="M 625.72998046875 336 L 615.72998046875 346 L 615.72998046875 379 L 625.72998046875 369 L 625.72998046875 336" stroke-miterlimit="10"/></g><g transform="translate(-86,10) scale(1,1)"><g><path fill="none" stroke="none"/><text fill="#000000" stroke="none" font-family="Arial" font-size="13px" font-style="normal" font-weight="bold" text-decoration="none" x="578.273193359375" y="365.5">fonts</text></g></g><g transform="translate(-86,10) scale(1,1)"><path fill="#C0C0C0" stroke="none" d="M 575 457 L 625.630859375 457 L 625.630859375 490 L 575 490" opacity="0.2"/></g><g transform="translate(-86,10) scale(1,1)"><path fill="#C0C0C0" stroke="none" d="M 575 457 L 585 447 L 635.630859375 447 L 625.630859375 457" opacity="0.2"/></g><g transform="translate(-86,10) scale(1,1)"><path fill="#C0C0C0" stroke="none" d="M 635.630859375 447 L 625.630859375 457 L 625.630859375 490 L 635.630859375 480" opacity="0.2"/></g><g transform="translate(-86,10) scale(1,1)"><path fill="#ffffff" stroke="none" d="M 568 450 L 618.630859375 450 L 618.630859375 483 L 568 483"/></g><g transform="translate(-86,10) scale(1,1)"><path fill="#ffffff" stroke="none" d="M 568 450 L 578 440 L 628.630859375 440 L 618.630859375 450"/></g><g transform="translate(-86,10) scale(1,1)"><path fill="#ffffff" stroke="none" d="M 628.630859375 440 L 618.630859375 450 L 618.630859375 483 L 628.630859375 473"/></g><g transform="translate(-86,10) scale(1,1)"><path fill="none" stroke="#000000" d="M 568 450 L 618.630859375 450 L 618.630859375 483 L 568 483 L 568 450" stroke-miterlimit="10"/></g><g transform="translate(-86,10) scale(1,1)"><path fill="none" stroke="#000000" d="M 568 450 L 578 440 L 628.630859375 440 L 618.630859375 450 L 568 450" stroke-miterlimit="10"/></g><g transform="translate(-86,10) scale(1,1)"><path fill="none" stroke="#000000" d="M 628.630859375 440 L 618.630859375 450 L 618.630859375 483 L 628.630859375 473 L 628.630859375 440" stroke-miterlimit="10"/></g><g transform="translate(-86,10) scale(1,1)"><g><path fill="none" stroke="none"/><text fill="#000000" stroke="none" font-family="Arial" font-size="13px" font-style="normal" font-weight="bold" text-decoration="none" x="575.035888671875" y="469.5">scripts</text></g></g><g transform="translate(-86,10) scale(1,1)"><path fill="#C0C0C0" stroke="none" d="M 575 553 L 622.72998046875 553 L 622.72998046875 586 L 575 586" opacity="0.2"/></g><g transform="translate(-86,10) scale(1,1)"><path fill="#C0C0C0" stroke="none" d="M 575 553 L 585 543 L 632.72998046875 543 L 622.72998046875 553" opacity="0.2"/></g><g transform="translate(-86,10) scale(1,1)"><path fill="#C0C0C0" stroke="none" d="M 632.72998046875 543 L 622.72998046875 553 L 622.72998046875 586 L 632.72998046875 576" opacity="0.2"/></g><g transform="translate(-86,10) scale(1,1)"><path fill="#ffffff" stroke="none" d="M 568 546 L 615.72998046875 546 L 615.72998046875 579 L 568 579"/></g><g transform="translate(-86,10) scale(1,1)"><path fill="#ffffff" stroke="none" d="M 568 546 L 578 536 L 625.72998046875 536 L 615.72998046875 546"/></g><g transform="translate(-86,10) scale(1,1)"><path fill="#ffffff" stroke="none" d="M 625.72998046875 536 L 615.72998046875 546 L 615.72998046875 579 L 625.72998046875 569"/></g><g transform="translate(-86,10) scale(1,1)"><path fill="none" stroke="#000000" d="M 568 546 L 615.72998046875 546 L 615.72998046875 579 L 568 579 L 568 546" stroke-miterlimit="10"/></g><g transform="translate(-86,10) scale(1,1)"><path fill="none" stroke="#000000" d="M 568 546 L 578 536 L 625.72998046875 536 L 615.72998046875 546 L 568 546" stroke-miterlimit="10"/></g><g transform="translate(-86,10) scale(1,1)"><path fill="none" stroke="#000000" d="M 625.72998046875 536 L 615.72998046875 546 L 615.72998046875 579 L 625.72998046875 569 L 625.72998046875 536" stroke-miterlimit="10"/></g><g transform="translate(-86,10) scale(1,1)"><g><path fill="none" stroke="none"/><text fill="#000000" stroke="none" font-family="Arial" font-size="13px" font-style="normal" font-weight="bold" text-decoration="none" x="575.75" y="565.5">styles</text></g></g><g transform="translate(-86,10) scale(1,1)"><path fill="#C0C0C0" stroke="none" d="M 119 505 L 348 505 L 348 630 L 119 630" opacity="0.2"/></g><g transform="translate(-86,10) scale(1,1)"><path fill="#C0C0C0" stroke="none" d="M 119 505 L 129 495 L 358 495 L 348 505" opacity="0.2"/></g><g transform="translate(-86,10) scale(1,1)"><path fill="#C0C0C0" stroke="none" d="M 358 495 L 348 505 L 348 630 L 358 620" opacity="0.2"/></g><g transform="translate(-86,10) scale(1,1)"><path fill="#ffffff" stroke="none" d="M 112 498 L 341 498 L 341 623 L 112 623"/></g><g transform="translate(-86,10) scale(1,1)"><path fill="#ffffff" stroke="none" d="M 112 498 L 122 488 L 351 488 L 341 498"/></g><g transform="translate(-86,10) scale(1,1)"><path fill="#ffffff" stroke="none" d="M 351 488 L 341 498 L 341 623 L 351 613"/></g><g transform="translate(-86,10) scale(1,1)"><path fill="none" stroke="#000000" d="M 112 498 L 341 498 L 341 623 L 112 623 L 112 498" stroke-miterlimit="10"/></g><g transform="translate(-86,10) scale(1,1)"><path fill="none" stroke="#000000" d="M 112 498 L 122 488 L 351 488 L 341 498 L 112 498" stroke-miterlimit="10"/></g><g transform="translate(-86,10) scale(1,1)"><path fill="none" stroke="#000000" d="M 351 488 L 341 498 L 341 623 L 351 613 L 351 488" stroke-miterlimit="10"/></g><g transform="translate(-86,10) scale(1,1)"><g><path fill="none" stroke="none"/><text fill="#000000" stroke="none" font-family="Arial" font-size="13px" font-style="normal" font-weight="bold" text-decoration="none" x="210.740478515625" y="517.5">demo</text></g></g><g transform="translate(-86,10) scale(1,1)"><path fill="#C0C0C0" stroke="none" d="M 459.2708984375 71 L 499.0308984375 71 L 516.0708984375001 88.04 L 516.0708984375001 142 L 459.2708984375 142" opacity="0.2"/></g><g transform="translate(-86,10) scale(1,1)"><path fill="#ffffff" stroke="none" d="M 452.2708984375 64 L 492.0308984375 64 L 509.0708984375 81.03999999999999 L 509.0708984375 135 L 452.2708984375 135"/></g><g transform="translate(-86,10) scale(1,1)"><path fill="none" stroke="#000000" d="M 452.2708984375 64 L 492.0308984375 64 L 509.0708984375 81.03999999999999 L 509.0708984375 135 L 452.2708984375 135 L 452.2708984375 64" stroke-miterlimit="10"/></g><g transform="translate(-86,10) scale(1,1)"><path fill="none" stroke="#000000" d="M 492.0308984375 64 L 492.0308984375 81.03999999999999 L 509.0708984375 81.03999999999999 L 492.0308984375 64" stroke-miterlimit="10"/></g><g transform="translate(-86,10) scale(1,1)"><g><path fill="none" stroke="none"/><text fill="#000000" stroke="none" font-family="Arial" font-size="13px" font-style="normal" font-weight="bold" text-decoration="none" x="452.85546875" y="154.5">LICENSE</text></g></g></g></svg>